<svg version="1.1" xmlns="http://www.w3.org/2000/svg" viewBox="0 0 1070.6480336400527 554.3318720765756" width="1070.6480336400527" height="554.3318720765756" filter="invert(93%) hue-rotate(180deg)">
  <!-- svg-source:excalidraw -->
  
  <defs>
    <style class="style-fonts">
      @font-face {
        font-family: "Virgil";
        src: url("https://file%2B.vscode-resource.vscode-cdn.net/Users/jay/.antigravity-ide/extensions/lrstanley.excalidraw-editor-3.7.4-universal/public//dist/excalidraw-assets/Virgil.woff2");
      }
      @font-face {
        font-family: "Cascadia";
        src: url("https://file%2B.vscode-resource.vscode-cdn.net/Users/jay/.antigravity-ide/extensions/lrstanley.excalidraw-editor-3.7.4-universal/public//dist/excalidraw-assets/Cascadia.woff2");
      }
      @font-face {
        font-family: "Assistant";
        src: url("https://file%2B.vscode-resource.vscode-cdn.net/Users/jay/.antigravity-ide/extensions/lrstanley.excalidraw-editor-3.7.4-universal/public//dist/excalidraw-assets/Assistant-Regular.woff2");
      }
    </style>
    
  </defs>
  <g transform="translate(10 10) rotate(0 259.8797912597656 50)"><text x="0" y="0" font-family="Virgil, Segoe UI Emoji" font-size="20px" fill="#1e1e1e" text-anchor="start" style="white-space: pre;" direction="ltr" dominant-baseline="text-before-edge">How does the boiler plate code function in backend? </text><text x="0" y="25" font-family="Virgil, Segoe UI Emoji" font-size="20px" fill="#1e1e1e" text-anchor="start" style="white-space: pre;" direction="ltr" dominant-baseline="text-before-edge"></text><text x="0" y="50" font-family="Virgil, Segoe UI Emoji" font-size="20px" fill="#1e1e1e" text-anchor="start" style="white-space: pre;" direction="ltr" dominant-baseline="text-before-edge"></text><text x="0" y="75" font-family="Virgil, Segoe UI Emoji" font-size="20px" fill="#1e1e1e" text-anchor="start" style="white-space: pre;" direction="ltr" dominant-baseline="text-before-edge"></text></g><g stroke-linecap="round" transform="translate(33.42955191783267 175.91789295209628) rotate(0 214.22037760416652 158.9095052083328)"><path d="M32 0 C110.63 -0.31, 190.93 0.79, 396.44 0 M32 0 C167.64 -2.51, 304.64 -2.51, 396.44 0 M396.44 0 C418.21 -1.75, 428 11.74, 428.44 32 M396.44 0 C415.5 -0.2, 427.1 12.66, 428.44 32 M428.44 32 C425.51 123.36, 426.27 213.73, 428.44 285.82 M428.44 32 C428.14 92.76, 429 154.1, 428.44 285.82 M428.44 285.82 C429.44 306.85, 418.35 318.63, 396.44 317.82 M428.44 285.82 C429.18 307.76, 415.57 319.72, 396.44 317.82 M396.44 317.82 C322.93 316.47, 249.22 315.26, 32 317.82 M396.44 317.82 C306.15 316.59, 214.91 316.72, 32 317.82 M32 317.82 C10.58 318.63, 0.15 306.35, 0 285.82 M32 317.82 C12.39 319.22, 0.08 309.3, 0 285.82 M0 285.82 C0.24 205.21, -1.28 125.83, 0 32 M0 285.82 C2.48 221.75, 2.61 157.81, 0 32 M0 32 C0.53 9.73, 9.97 1.98, 32 0 M0 32 C-1.88 9.29, 8.91 1.54, 32 0" stroke="#1e1e1e" stroke-width="2" fill="none"></path></g><g stroke-linecap="round" transform="translate(249.20071534514068 493.6392471187619) rotate(0 0 0)"><path d="M0 0 C0 0, 0 0, 0 0 M0 0 C0 0, 0 0, 0 0 M0 0 C0.37 -0.3, -0.34 0.54, 0 0 M0 0 C-0.05 -0.33, -0.2 0.67, 0 0 M0 0 C0 0, 0 0, 0 0 M0 0 C0 0, 0 0, 0 0 M0 0 C-0.62 0.19, 0.44 -0.18, 0 0 M0 0 C-0.17 -0.14, 0.56 -0.12, 0 0 M0 0 C0 0, 0 0, 0 0 M0 0 C0 0, 0 0, 0 0 M0 0 C0.56 -0.27, -0.22 -0.01, 0 0 M0 0 C0.22 0.63, 0.09 0.01, 0 0 M0 0 C0 0, 0 0, 0 0 M0 0 C0 0, 0 0, 0 0 M0 0 C0.24 0.43, -0.43 -0.42, 0 0 M0 0 C0.14 0.36, 0.06 0.59, 0 0" stroke="#1e1e1e" stroke-width="2" fill="none"></path></g><g transform="translate(83.06790284514045 154.2447158687619) rotate(0 97.44989013671875 12.5)"><text x="0" y="0" font-family="Virgil, Segoe UI Emoji" font-size="20px" fill="#1971c2" text-anchor="start" style="white-space: pre;" direction="ltr" dominant-baseline="text-before-edge">python-boilerplate.py</text></g><g transform="translate(53.80519917124889 192.30181451872613) rotate(0 193.43201319376635 104.24967447916674)"><text x="0" y="0" font-family="Cascadia, Segoe UI Emoji" font-size="17.374945746527786px" fill="#1971c2" text-anchor="start" style="white-space: pre;" direction="ltr" dominant-baseline="text-before-edge">{{SOLUTION}}</text><text x="0" y="20.849934895833343" font-family="Cascadia, Segoe UI Emoji" font-size="17.374945746527786px" fill="#1971c2" text-anchor="start" style="white-space: pre;" direction="ltr" dominant-baseline="text-before-edge"></text><text x="0" y="41.699869791666686" font-family="Cascadia, Segoe UI Emoji" font-size="17.374945746527786px" fill="#1971c2" text-anchor="start" style="white-space: pre;" direction="ltr" dominant-baseline="text-before-edge">n = int(input())</text><text x="0" y="62.54980468750003" font-family="Cascadia, Segoe UI Emoji" font-size="17.374945746527786px" fill="#1971c2" text-anchor="start" style="white-space: pre;" direction="ltr" dominant-baseline="text-before-edge">nums = list(map(int, input().split()))</text><text x="0" y="83.39973958333337" font-family="Cascadia, Segoe UI Emoji" font-size="17.374945746527786px" fill="#1971c2" text-anchor="start" style="white-space: pre;" direction="ltr" dominant-baseline="text-before-edge">target = int(input())</text><text x="0" y="104.24967447916671" font-family="Cascadia, Segoe UI Emoji" font-size="17.374945746527786px" fill="#1971c2" text-anchor="start" style="white-space: pre;" direction="ltr" dominant-baseline="text-before-edge"></text><text x="0" y="125.09960937500006" font-family="Cascadia, Segoe UI Emoji" font-size="17.374945746527786px" fill="#1971c2" text-anchor="start" style="white-space: pre;" direction="ltr" dominant-baseline="text-before-edge">answer = two_sum(nums, target)</text><text x="0" y="145.9495442708334" font-family="Cascadia, Segoe UI Emoji" font-size="17.374945746527786px" fill="#1971c2" text-anchor="start" style="white-space: pre;" direction="ltr" dominant-baseline="text-before-edge">answer = sorted(answer)</text><text x="0" y="166.79947916666674" font-family="Cascadia, Segoe UI Emoji" font-size="17.374945746527786px" fill="#1971c2" text-anchor="start" style="white-space: pre;" direction="ltr" dominant-baseline="text-before-edge">print(answer[0], answer[1])</text><text x="0" y="187.64941406250009" font-family="Cascadia, Segoe UI Emoji" font-size="17.374945746527786px" fill="#1971c2" text-anchor="start" style="white-space: pre;" direction="ltr" dominant-baseline="text-before-edge"></text></g><g stroke-linecap="round" transform="translate(571.0289479513323 126.26761712201369) rotate(0 244.8095428443603 209.03212747728094)"><path d="M32 0 C138.92 -3.58, 243.82 -1.29, 457.62 0 C478.35 3.11, 491.46 7.81, 489.62 32 C489.68 116.92, 491.83 203.18, 489.62 386.06 C488.38 409.79, 481.6 415.3, 457.62 418.06 C321.06 416.96, 183.33 417.34, 32 418.06 C9.37 416.41, -2.94 407.84, 0 386.06 C-0.87 292.86, -0.87 200.46, 0 32 C-0.92 12.89, 10.01 3.51, 32 0" stroke="none" stroke-width="0" fill="#b2f2bb"></path><path d="M32 0 C165.75 0.98, 299.28 1.52, 457.62 0 M32 0 C151.63 -1.33, 270.99 -1.23, 457.62 0 M457.62 0 C478.71 1.54, 491.52 10.24, 489.62 32 M457.62 0 C477.62 -2.11, 487.68 11.28, 489.62 32 M489.62 32 C486.63 169.67, 488.52 305.92, 489.62 386.06 M489.62 32 C492.08 113.03, 491.45 194.14, 489.62 386.06 M489.62 386.06 C489.57 406.3, 478.25 417.48, 457.62 418.06 M489.62 386.06 C489.24 407.01, 479.56 416.41, 457.62 418.06 M457.62 418.06 C348.22 416.47, 236.27 416.56, 32 418.06 M457.62 418.06 C354.99 419.55, 252.77 419.96, 32 418.06 M32 418.06 C9.51 420.05, -1.54 407.7, 0 386.06 M32 418.06 C12.3 419.51, 0.32 407.49, 0 386.06 M0 386.06 C-0.69 250.34, -1.21 116.89, 0 32 M0 386.06 C-1.09 276.38, -0.95 167.82, 0 32 M0 32 C1.56 10.21, 11.71 -1.62, 32 0 M0 32 C1.59 12.24, 12.53 0.77, 32 0" stroke="#1971c2" stroke-width="2" fill="none"></path></g><g transform="translate(599.0416157956926 215.29974459929463) rotate(0 216.796875 120)"><text x="216.796875" y="0" font-family="Cascadia, Segoe UI Emoji" font-size="20px" fill="#1971c2" text-anchor="middle" style="white-space: pre;" direction="ltr" dominant-baseline="text-before-edge">def two_sum(nums: list[int], target: </text><text x="216.796875" y="24" font-family="Cascadia, Segoe UI Emoji" font-size="20px" fill="#1971c2" text-anchor="middle" style="white-space: pre;" direction="ltr" dominant-baseline="text-before-edge">int) -&gt; list[int]:</text><text x="216.796875" y="48" font-family="Cascadia, Segoe UI Emoji" font-size="20px" fill="#1971c2" text-anchor="middle" style="white-space: pre;" direction="ltr" dominant-baseline="text-before-edge">    seen = {}</text><text x="216.796875" y="72" font-family="Cascadia, Segoe UI Emoji" font-size="20px" fill="#1971c2" text-anchor="middle" style="white-space: pre;" direction="ltr" dominant-baseline="text-before-edge">    for i, value in enumerate(nums):</text><text x="216.796875" y="96" font-family="Cascadia, Segoe UI Emoji" font-size="20px" fill="#1971c2" text-anchor="middle" style="white-space: pre;" direction="ltr" dominant-baseline="text-before-edge">        needed = target - value</text><text x="216.796875" y="120" font-family="Cascadia, Segoe UI Emoji" font-size="20px" fill="#1971c2" text-anchor="middle" style="white-space: pre;" direction="ltr" dominant-baseline="text-before-edge">        if needed in seen:</text><text x="216.796875" y="144" font-family="Cascadia, Segoe UI Emoji" font-size="20px" fill="#1971c2" text-anchor="middle" style="white-space: pre;" direction="ltr" dominant-baseline="text-before-edge">            return [seen[needed], i]</text><text x="216.796875" y="168" font-family="Cascadia, Segoe UI Emoji" font-size="20px" fill="#1971c2" text-anchor="middle" style="white-space: pre;" direction="ltr" dominant-baseline="text-before-edge">        seen[value] = i</text><text x="216.796875" y="192" font-family="Cascadia, Segoe UI Emoji" font-size="20px" fill="#1971c2" text-anchor="middle" style="white-space: pre;" direction="ltr" dominant-baseline="text-before-edge">    return []</text><text x="216.796875" y="216" font-family="Cascadia, Segoe UI Emoji" font-size="20px" fill="#1971c2" text-anchor="middle" style="white-space: pre;" direction="ltr" dominant-baseline="text-before-edge"></text></g><g transform="translate(623.4692223007057 103.7113903387908) rotate(0 73.84991455078125 12.5)"><text x="0" y="0" font-family="Virgil, Segoe UI Emoji" font-size="20px" fill="#1971c2" text-anchor="start" style="white-space: pre;" direction="ltr" dominant-baseline="text-before-edge">user submission</text></g><g stroke-linecap="round"><g transform="translate(556.7574770105903 308.8433835081528) rotate(0 -186.91022846925512 -53.64330995554292)"><path d="M1 0.12 C-9.83 -14.77, -2.07 -70.35, -64.59 -88.35 C-127.12 -106.34, -322.57 -104.51, -374.14 -107.84 M0.07 -0.87 C-11 -15.69, -3.29 -69.42, -65.82 -87.08 C-128.34 -104.74, -323.74 -103.37, -375.07 -106.82" stroke="#2f9e44" stroke-width="2" fill="none"></path></g><g transform="translate(556.7574770105903 308.8433835081528) rotate(0 -186.91022846925512 -53.64330995554292)"><path d="M-346.57 -116.18 C-355.81 -113.69, -366.36 -110.23, -375.07 -106.82 M-346.57 -116.18 C-353.85 -114.93, -361.31 -110.87, -375.07 -106.82" stroke="#2f9e44" stroke-width="2" fill="none"></path></g><g transform="translate(556.7574770105903 308.8433835081528) rotate(0 -186.91022846925512 -53.64330995554292)"><path d="M-347.22 -95.67 C-356.41 -100.03, -366.75 -103.41, -375.07 -106.82 M-347.22 -95.67 C-354.3 -99.62, -361.6 -100.76, -375.07 -106.82" stroke="#2f9e44" stroke-width="2" fill="none"></path></g></g><mask></mask><g transform="translate(279.0499473483667 99.71002901291013) rotate(0 158.203125 36)"><text x="0" y="0" font-family="Cascadia, Segoe UI Emoji" font-size="20px" fill="#2f9e44" text-anchor="start" style="white-space: pre;" direction="ltr" dominant-baseline="text-before-edge">The function sig</text><text x="0" y="24" font-family="Cascadia, Segoe UI Emoji" font-size="20px" fill="#2f9e44" text-anchor="start" style="white-space: pre;" direction="ltr" dominant-baseline="text-before-edge">will replace {{solution}}</text><text x="0" y="48" font-family="Cascadia, Segoe UI Emoji" font-size="20px" fill="#2f9e44" text-anchor="start" style="white-space: pre;" direction="ltr" dominant-baseline="text-before-edge">before the code is tested. </text></g></svg>