<svg version="1.1" xmlns="http://www.w3.org/2000/svg" viewBox="0 0 1864.7972153460214 1116.8019027326345" width="1864.7972153460214" height="1116.8019027326345" filter="invert(93%) hue-rotate(180deg)">
  <!-- svg-source:excalidraw -->
  
  <defs>
    <style class="style-fonts">
      @font-face {
        font-family: "Virgil";
        src: url("https://file%2B.vscode-resource.vscode-cdn.net/Users/jay/.antigravity-ide/extensions/lrstanley.excalidraw-editor-3.7.4-universal/public//dist/excalidraw-assets/Virgil.woff2");
      }
      @font-face {
        font-family: "Cascadia";
        src: url("https://file%2B.vscode-resource.vscode-cdn.net/Users/jay/.antigravity-ide/extensions/lrstanley.excalidraw-editor-3.7.4-universal/public//dist/excalidraw-assets/Cascadia.woff2");
      }
      @font-face {
        font-family: "Assistant";
        src: url("https://file%2B.vscode-resource.vscode-cdn.net/Users/jay/.antigravity-ide/extensions/lrstanley.excalidraw-editor-3.7.4-universal/public//dist/excalidraw-assets/Assistant-Regular.woff2");
      }
    </style>
    
  </defs>
  <g stroke-linecap="round" transform="translate(227.049291405772 86.40769178129358) rotate(0 214.22037760416652 158.9095052083328)"><path d="M32 0 C110.63 -0.31, 190.93 0.79, 396.44 0 M32 0 C167.64 -2.51, 304.64 -2.51, 396.44 0 M396.44 0 C418.21 -1.75, 428 11.74, 428.44 32 M396.44 0 C415.5 -0.2, 427.1 12.66, 428.44 32 M428.44 32 C425.51 123.36, 426.27 213.73, 428.44 285.82 M428.44 32 C428.14 92.76, 429 154.1, 428.44 285.82 M428.44 285.82 C429.44 306.85, 418.35 318.63, 396.44 317.82 M428.44 285.82 C429.18 307.76, 415.57 319.72, 396.44 317.82 M396.44 317.82 C322.93 316.47, 249.22 315.26, 32 317.82 M396.44 317.82 C306.15 316.59, 214.91 316.72, 32 317.82 M32 317.82 C10.58 318.63, 0.15 306.35, 0 285.82 M32 317.82 C12.39 319.22, 0.08 309.3, 0 285.82 M0 285.82 C0.24 205.21, -1.28 125.83, 0 32 M0 285.82 C2.48 221.75, 2.61 157.81, 0 32 M0 32 C0.53 9.73, 9.97 1.98, 32 0 M0 32 C-1.88 9.29, 8.91 1.54, 32 0" stroke="#1e1e1e" stroke-width="2" fill="none"></path></g><g stroke-linecap="round" transform="translate(442.82045483308 403.92921810585176) rotate(0 0 0)"><path d="M0 0 C0 0, 0 0, 0 0 M0 0 C0 0, 0 0, 0 0 M0 0 C0.37 -0.3, -0.34 0.54, 0 0 M0 0 C-0.05 -0.33, -0.2 0.67, 0 0 M0 0 C0 0, 0 0, 0 0 M0 0 C0 0, 0 0, 0 0 M0 0 C-0.62 0.19, 0.44 -0.18, 0 0 M0 0 C-0.17 -0.14, 0.56 -0.12, 0 0 M0 0 C0 0, 0 0, 0 0 M0 0 C0 0, 0 0, 0 0 M0 0 C0.56 -0.27, -0.22 -0.01, 0 0 M0 0 C0.22 0.63, 0.09 0.01, 0 0 M0 0 C0 0, 0 0, 0 0 M0 0 C0 0, 0 0, 0 0 M0 0 C0.24 0.43, -0.43 -0.42, 0 0 M0 0 C0.14 0.36, 0.06 0.59, 0 0" stroke="#1e1e1e" stroke-width="2" fill="none"></path></g><g transform="translate(276.6876423330798 64.53468685585176) rotate(0 97.44989013671875 12.5)"><text x="0" y="0" font-family="Virgil, Segoe UI Emoji" font-size="20px" fill="#1971c2" text-anchor="start" style="white-space: pre;" direction="ltr" dominant-baseline="text-before-edge">python-boilerplate.py</text></g><g transform="translate(247.42493865918823 102.591785505816) rotate(0 193.376953125 104.24967447916674)"><text x="0" y="0" font-family="Cascadia, Segoe UI Emoji" font-size="17.374945746527786px" fill="#1971c2" text-anchor="start" style="white-space: pre;" direction="ltr" dominant-baseline="text-before-edge">{{SOLUTION}}</text><text x="0" y="20.849934895833343" font-family="Cascadia, Segoe UI Emoji" font-size="17.374945746527786px" fill="#1971c2" text-anchor="start" style="white-space: pre;" direction="ltr" dominant-baseline="text-before-edge"></text><text x="0" y="41.699869791666686" font-family="Cascadia, Segoe UI Emoji" font-size="17.374945746527786px" fill="#1971c2" text-anchor="start" style="white-space: pre;" direction="ltr" dominant-baseline="text-before-edge">n = int(input())</text><text x="0" y="62.54980468750003" font-family="Cascadia, Segoe UI Emoji" font-size="17.374945746527786px" fill="#1971c2" text-anchor="start" style="white-space: pre;" direction="ltr" dominant-baseline="text-before-edge">nums = list(map(int, input().split()))</text><text x="0" y="83.39973958333337" font-family="Cascadia, Segoe UI Emoji" font-size="17.374945746527786px" fill="#1971c2" text-anchor="start" style="white-space: pre;" direction="ltr" dominant-baseline="text-before-edge">target = int(input())</text><text x="0" y="104.24967447916671" font-family="Cascadia, Segoe UI Emoji" font-size="17.374945746527786px" fill="#1971c2" text-anchor="start" style="white-space: pre;" direction="ltr" dominant-baseline="text-before-edge"></text><text x="0" y="125.09960937500006" font-family="Cascadia, Segoe UI Emoji" font-size="17.374945746527786px" fill="#1971c2" text-anchor="start" style="white-space: pre;" direction="ltr" dominant-baseline="text-before-edge">answer = two_sum(nums, target)</text><text x="0" y="145.9495442708334" font-family="Cascadia, Segoe UI Emoji" font-size="17.374945746527786px" fill="#1971c2" text-anchor="start" style="white-space: pre;" direction="ltr" dominant-baseline="text-before-edge">answer = sorted(answer)</text><text x="0" y="166.79947916666674" font-family="Cascadia, Segoe UI Emoji" font-size="17.374945746527786px" fill="#1971c2" text-anchor="start" style="white-space: pre;" direction="ltr" dominant-baseline="text-before-edge">print(answer[0], answer[1])</text><text x="0" y="187.64941406250009" font-family="Cascadia, Segoe UI Emoji" font-size="17.374945746527786px" fill="#1971c2" text-anchor="start" style="white-space: pre;" direction="ltr" dominant-baseline="text-before-edge"></text></g><g stroke-linecap="round" transform="translate(764.6486874392716 36.55758810910356) rotate(0 244.8095428443603 209.03212747728094)"><path d="M32 0 C138.92 -3.58, 243.82 -1.29, 457.62 0 C478.35 3.11, 491.46 7.81, 489.62 32 C489.68 116.92, 491.83 203.18, 489.62 386.06 C488.38 409.79, 481.6 415.3, 457.62 418.06 C321.06 416.96, 183.33 417.34, 32 418.06 C9.37 416.41, -2.94 407.84, 0 386.06 C-0.87 292.86, -0.87 200.46, 0 32 C-0.92 12.89, 10.01 3.51, 32 0" stroke="none" stroke-width="0" fill="#b2f2bb"></path><path d="M32 0 C165.75 0.98, 299.28 1.52, 457.62 0 M32 0 C151.63 -1.33, 270.99 -1.23, 457.62 0 M457.62 0 C478.71 1.54, 491.52 10.24, 489.62 32 M457.62 0 C477.62 -2.11, 487.68 11.28, 489.62 32 M489.62 32 C486.63 169.67, 488.52 305.92, 489.62 386.06 M489.62 32 C492.08 113.03, 491.45 194.14, 489.62 386.06 M489.62 386.06 C489.57 406.3, 478.25 417.48, 457.62 418.06 M489.62 386.06 C489.24 407.01, 479.56 416.41, 457.62 418.06 M457.62 418.06 C348.22 416.47, 236.27 416.56, 32 418.06 M457.62 418.06 C354.99 419.55, 252.77 419.96, 32 418.06 M32 418.06 C9.51 420.05, -1.54 407.7, 0 386.06 M32 418.06 C12.3 419.51, 0.32 407.49, 0 386.06 M0 386.06 C-0.69 250.34, -1.21 116.89, 0 32 M0 386.06 C-1.09 276.38, -0.95 167.82, 0 32 M0 32 C1.56 10.21, 11.71 -1.62, 32 0 M0 32 C1.59 12.24, 12.53 0.77, 32 0" stroke="#1971c2" stroke-width="2" fill="none"></path></g><g transform="translate(792.6613552836319 125.5897155863845) rotate(0 216.796875 120)"><text x="216.796875" y="0" font-family="Cascadia, Segoe UI Emoji" font-size="20px" fill="#1971c2" text-anchor="middle" style="white-space: pre;" direction="ltr" dominant-baseline="text-before-edge">def two_sum(nums: list[int], target: </text><text x="216.796875" y="24" font-family="Cascadia, Segoe UI Emoji" font-size="20px" fill="#1971c2" text-anchor="middle" style="white-space: pre;" direction="ltr" dominant-baseline="text-before-edge">int) -&gt; list[int]:</text><text x="216.796875" y="48" font-family="Cascadia, Segoe UI Emoji" font-size="20px" fill="#1971c2" text-anchor="middle" style="white-space: pre;" direction="ltr" dominant-baseline="text-before-edge">    seen = {}</text><text x="216.796875" y="72" font-family="Cascadia, Segoe UI Emoji" font-size="20px" fill="#1971c2" text-anchor="middle" style="white-space: pre;" direction="ltr" dominant-baseline="text-before-edge">    for i, value in enumerate(nums):</text><text x="216.796875" y="96" font-family="Cascadia, Segoe UI Emoji" font-size="20px" fill="#1971c2" text-anchor="middle" style="white-space: pre;" direction="ltr" dominant-baseline="text-before-edge">        needed = target - value</text><text x="216.796875" y="120" font-family="Cascadia, Segoe UI Emoji" font-size="20px" fill="#1971c2" text-anchor="middle" style="white-space: pre;" direction="ltr" dominant-baseline="text-before-edge">        if needed in seen:</text><text x="216.796875" y="144" font-family="Cascadia, Segoe UI Emoji" font-size="20px" fill="#1971c2" text-anchor="middle" style="white-space: pre;" direction="ltr" dominant-baseline="text-before-edge">            return [seen[needed], i]</text><text x="216.796875" y="168" font-family="Cascadia, Segoe UI Emoji" font-size="20px" fill="#1971c2" text-anchor="middle" style="white-space: pre;" direction="ltr" dominant-baseline="text-before-edge">        seen[value] = i</text><text x="216.796875" y="192" font-family="Cascadia, Segoe UI Emoji" font-size="20px" fill="#1971c2" text-anchor="middle" style="white-space: pre;" direction="ltr" dominant-baseline="text-before-edge">    return []</text><text x="216.796875" y="216" font-family="Cascadia, Segoe UI Emoji" font-size="20px" fill="#1971c2" text-anchor="middle" style="white-space: pre;" direction="ltr" dominant-baseline="text-before-edge"></text></g><g transform="translate(817.0889617886451 14.00136132588068) rotate(0 73.84991455078125 12.5)"><text x="0" y="0" font-family="Virgil, Segoe UI Emoji" font-size="20px" fill="#1971c2" text-anchor="start" style="white-space: pre;" direction="ltr" dominant-baseline="text-before-edge">user submission</text></g><g mask="url(#mask-SnEKcHa4ZetjF_jRL_kzX)" stroke-linecap="round"><g transform="translate(750.3772164985296 219.13335449524266) rotate(0 -186.91022846925512 -53.64330995554292)"><path d="M1 0.12 C-9.83 -14.77, -2.07 -70.35, -64.59 -88.35 C-127.12 -106.34, -322.57 -104.51, -374.14 -107.84 M0.07 -0.87 C-11 -15.69, -3.29 -69.42, -65.82 -87.08 C-128.34 -104.74, -323.74 -103.37, -375.07 -106.82" stroke="#2f9e44" stroke-width="2" fill="none"></path></g><g transform="translate(750.3772164985296 219.13335449524266) rotate(0 -186.91022846925512 -53.64330995554292)"><path d="M-346.57 -116.18 C-355.81 -113.69, -366.36 -110.23, -375.07 -106.82 M-346.57 -116.18 C-353.85 -114.93, -361.31 -110.87, -375.07 -106.82" stroke="#2f9e44" stroke-width="2" fill="none"></path></g><g transform="translate(750.3772164985296 219.13335449524266) rotate(0 -186.91022846925512 -53.64330995554292)"><path d="M-347.22 -95.67 C-356.41 -100.03, -366.75 -103.41, -375.07 -106.82 M-347.22 -95.67 C-354.3 -99.62, -361.6 -100.76, -375.07 -106.82" stroke="#2f9e44" stroke-width="2" fill="none"></path></g></g><mask id="mask-SnEKcHa4ZetjF_jRL_kzX"><rect x="0" y="0" fill="#fff" width="1224.1976734370398" height="426.4199744063285"></rect><rect x="668.7268808908676" y="119.29984491147752" fill="#000" width="35.15625" height="24" opacity="1"></rect></mask><g transform="translate(668.7268808908676 119.29984491147752) rotate(0 -105.38470956509616 45.970184645551626)"><text x="17.578125" y="0" font-family="Cascadia, Segoe UI Emoji" font-size="20px" fill="#1e1e1e" text-anchor="middle" style="white-space: pre;" direction="ltr" dominant-baseline="text-before-edge">(1)</text></g><g transform="translate(472.669686836306 10) rotate(0 158.203125 36)"><text x="0" y="0" font-family="Cascadia, Segoe UI Emoji" font-size="20px" fill="#2f9e44" text-anchor="start" style="white-space: pre;" direction="ltr" dominant-baseline="text-before-edge">The function sig</text><text x="0" y="24" font-family="Cascadia, Segoe UI Emoji" font-size="20px" fill="#2f9e44" text-anchor="start" style="white-space: pre;" direction="ltr" dominant-baseline="text-before-edge">will replace {{solution}}</text><text x="0" y="48" font-family="Cascadia, Segoe UI Emoji" font-size="20px" fill="#2f9e44" text-anchor="start" style="white-space: pre;" direction="ltr" dominant-baseline="text-before-edge">before the code is tested. </text></g><g stroke-linecap="round" transform="translate(263.3732740151206 524.1333312073202) rotate(0 282.6051795601147 291.33428576265715)"><path d="M32 0 C198.83 1.67, 367.67 1.48, 533.21 0 M32 0 C163.48 1.11, 295.25 0.7, 533.21 0 M533.21 0 C554 1.04, 565.99 9.2, 565.21 32 M533.21 0 C555.35 -1.73, 566.73 9.69, 565.21 32 M565.21 32 C565.04 233.02, 565.55 432.58, 565.21 550.67 M565.21 32 C564.07 215.47, 563.8 398.7, 565.21 550.67 M565.21 550.67 C564.3 572.79, 553.96 584.04, 533.21 582.67 M565.21 550.67 C567.15 573.84, 553.98 582.23, 533.21 582.67 M533.21 582.67 C392.82 581.27, 252.88 581.22, 32 582.67 M533.21 582.67 C419.84 581.39, 305.32 581.39, 32 582.67 M32 582.67 C8.86 582.45, -0.7 570.44, 0 550.67 M32 582.67 C9.56 583.11, -0.14 572.39, 0 550.67 M0 550.67 C2.03 354.87, 2.46 159.8, 0 32 M0 550.67 C1.66 445.66, 1.05 339.63, 0 32 M0 32 C0.47 9, 9.08 -0.31, 32 0 M0 32 C0.15 12.22, 8.75 -0.91, 32 0" stroke="#1e1e1e" stroke-width="2" fill="none"></path></g><g transform="translate(302.71921626209246 882.9170804407222) rotate(0 193.376953125 93.82470703125)"><text x="0" y="0" font-family="Cascadia, Segoe UI Emoji" font-size="17.374945746527786px" fill="#1971c2" text-anchor="start" style="white-space: pre;" direction="ltr" dominant-baseline="text-before-edge"></text><text x="0" y="20.849934895833343" font-family="Cascadia, Segoe UI Emoji" font-size="17.374945746527786px" fill="#1971c2" text-anchor="start" style="white-space: pre;" direction="ltr" dominant-baseline="text-before-edge">n = int(input())</text><text x="0" y="41.699869791666686" font-family="Cascadia, Segoe UI Emoji" font-size="17.374945746527786px" fill="#1971c2" text-anchor="start" style="white-space: pre;" direction="ltr" dominant-baseline="text-before-edge">nums = list(map(int, input().split()))</text><text x="0" y="62.54980468750003" font-family="Cascadia, Segoe UI Emoji" font-size="17.374945746527786px" fill="#1971c2" text-anchor="start" style="white-space: pre;" direction="ltr" dominant-baseline="text-before-edge">target = int(input())</text><text x="0" y="83.39973958333337" font-family="Cascadia, Segoe UI Emoji" font-size="17.374945746527786px" fill="#1971c2" text-anchor="start" style="white-space: pre;" direction="ltr" dominant-baseline="text-before-edge"></text><text x="0" y="104.24967447916671" font-family="Cascadia, Segoe UI Emoji" font-size="17.374945746527786px" fill="#1971c2" text-anchor="start" style="white-space: pre;" direction="ltr" dominant-baseline="text-before-edge">answer = two_sum(nums, target)</text><text x="0" y="125.09960937500006" font-family="Cascadia, Segoe UI Emoji" font-size="17.374945746527786px" fill="#1971c2" text-anchor="start" style="white-space: pre;" direction="ltr" dominant-baseline="text-before-edge">answer = sorted(answer)</text><text x="0" y="145.9495442708334" font-family="Cascadia, Segoe UI Emoji" font-size="17.374945746527786px" fill="#1971c2" text-anchor="start" style="white-space: pre;" direction="ltr" dominant-baseline="text-before-edge">print(answer[0], answer[1])</text><text x="0" y="166.79947916666674" font-family="Cascadia, Segoe UI Emoji" font-size="17.374945746527786px" fill="#1971c2" text-anchor="start" style="white-space: pre;" direction="ltr" dominant-baseline="text-before-edge"></text></g><g stroke-linecap="round" transform="translate(297.1731272253742 544.364316012824) rotate(0 189.29545258277562 172.46174579237595)"><path d="M32 0 C129.83 -0.61, 224.7 -0.01, 346.59 0 M346.59 0 C367.21 0.42, 378.26 8.87, 378.59 32 M378.59 32 C378.97 103.73, 378.55 178.47, 378.59 312.92 M378.59 312.92 C379.22 335.47, 369.86 345.05, 346.59 344.92 M346.59 344.92 C254.53 342.71, 162 344.85, 32 344.92 M32 344.92 C11.98 346.14, 1.17 332.55, 0 312.92 M0 312.92 C3.11 226.6, 2.65 141.99, 0 32 M0 32 C-0.81 9.95, 8.76 0.55, 32 0" stroke="#1971c2" stroke-width="2.5" fill="none" stroke-dasharray="1.5 8"></path></g><g transform="translate(304.8279548081498 572.8260618052) rotate(0 181.640625 144)"><text x="181.640625" y="0" font-family="Cascadia, Segoe UI Emoji" font-size="20px" fill="#1971c2" text-anchor="middle" style="white-space: pre;" direction="ltr" dominant-baseline="text-before-edge">def two_sum(nums: list[int], </text><text x="181.640625" y="24" font-family="Cascadia, Segoe UI Emoji" font-size="20px" fill="#1971c2" text-anchor="middle" style="white-space: pre;" direction="ltr" dominant-baseline="text-before-edge">target: int) -&gt; list[int]:</text><text x="181.640625" y="48" font-family="Cascadia, Segoe UI Emoji" font-size="20px" fill="#1971c2" text-anchor="middle" style="white-space: pre;" direction="ltr" dominant-baseline="text-before-edge">    seen = {}</text><text x="181.640625" y="72" font-family="Cascadia, Segoe UI Emoji" font-size="20px" fill="#1971c2" text-anchor="middle" style="white-space: pre;" direction="ltr" dominant-baseline="text-before-edge">    for i, value in </text><text x="181.640625" y="96" font-family="Cascadia, Segoe UI Emoji" font-size="20px" fill="#1971c2" text-anchor="middle" style="white-space: pre;" direction="ltr" dominant-baseline="text-before-edge">enumerate(nums):</text><text x="181.640625" y="120" font-family="Cascadia, Segoe UI Emoji" font-size="20px" fill="#1971c2" text-anchor="middle" style="white-space: pre;" direction="ltr" dominant-baseline="text-before-edge">        needed = target - value</text><text x="181.640625" y="144" font-family="Cascadia, Segoe UI Emoji" font-size="20px" fill="#1971c2" text-anchor="middle" style="white-space: pre;" direction="ltr" dominant-baseline="text-before-edge">        if needed in seen:</text><text x="181.640625" y="168" font-family="Cascadia, Segoe UI Emoji" font-size="20px" fill="#1971c2" text-anchor="middle" style="white-space: pre;" direction="ltr" dominant-baseline="text-before-edge">            return </text><text x="181.640625" y="192" font-family="Cascadia, Segoe UI Emoji" font-size="20px" fill="#1971c2" text-anchor="middle" style="white-space: pre;" direction="ltr" dominant-baseline="text-before-edge">[seen[needed], i]</text><text x="181.640625" y="216" font-family="Cascadia, Segoe UI Emoji" font-size="20px" fill="#1971c2" text-anchor="middle" style="white-space: pre;" direction="ltr" dominant-baseline="text-before-edge">        seen[value] = i</text><text x="181.640625" y="240" font-family="Cascadia, Segoe UI Emoji" font-size="20px" fill="#1971c2" text-anchor="middle" style="white-space: pre;" direction="ltr" dominant-baseline="text-before-edge">    return []</text><text x="181.640625" y="264" font-family="Cascadia, Segoe UI Emoji" font-size="20px" fill="#1971c2" text-anchor="middle" style="white-space: pre;" direction="ltr" dominant-baseline="text-before-edge"></text></g><g mask="url(#mask-q08Nj5Ht-fE4Y_8djapB2)" stroke-linecap="round"><g transform="translate(835.772169276214 822.0774042154098) rotate(0 178.95345620107815 -1.3847637771705195)"><path d="M-0.81 0.32 C59 -0.31, 298.73 -2.48, 358.58 -2.82 M0.97 -0.56 C60.7 -1.07, 298.53 -0.81, 357.98 -1.31" stroke="#2f9e44" stroke-width="2" fill="none"></path></g><g transform="translate(835.772169276214 822.0774042154098) rotate(0 178.95345620107815 -1.3847637771705195)"><path d="M329.82 9.04 C338.1 7.48, 345.3 4.09, 357.98 -1.31 M329.82 9.04 C340.06 4.38, 350.95 1.65, 357.98 -1.31" stroke="#2f9e44" stroke-width="2" fill="none"></path></g><g transform="translate(835.772169276214 822.0774042154098) rotate(0 178.95345620107815 -1.3847637771705195)"><path d="M329.76 -11.48 C338.22 -7.34, 345.44 -5.03, 357.98 -1.31 M329.76 -11.48 C339.83 -8.2, 350.75 -2.98, 357.98 -1.31" stroke="#2f9e44" stroke-width="2" fill="none"></path></g></g><mask id="mask-q08Nj5Ht-fE4Y_8djapB2"><rect x="0" y="0" fill="#fff" width="1293.6790816783703" height="924.8469317697509"></rect><rect x="997.1475004772922" y="808.6926404382393" fill="#000" width="35.15625" height="24" opacity="1"></rect></mask><g transform="translate(997.1475004772922 808.6926404382393) rotate(0 17.51008697077623 12.136291343718767)"><text x="17.578125" y="0" font-family="Cascadia, Segoe UI Emoji" font-size="20px" fill="#1e1e1e" text-anchor="middle" style="white-space: pre;" direction="ltr" dominant-baseline="text-before-edge">(3)</text></g><g stroke-linecap="round" transform="translate(1219.9970000355709 670.6553308756525) rotate(0 114.46362224776124 158.39616251690836)"><path d="M32 0 C68.17 0.42, 104.54 1, 196.93 0 C221.44 -3.09, 229.85 10.15, 228.93 32 C227.94 103.26, 227.07 181.51, 228.93 284.79 C228.1 307.55, 215.54 315.23, 196.93 316.79 C158.95 319.52, 112.47 314.64, 32 316.79 C10.7 319.6, 0.09 303.35, 0 284.79 C3.27 189.59, 3.94 100.23, 0 32 C2.98 12.22, 8.41 1.34, 32 0" stroke="none" stroke-width="0" fill="#ffc9c9"></path><path d="M32 0 C76.43 -1.48, 122.13 -1.59, 196.93 0 M32 0 C78.6 -0.67, 126.36 -1.24, 196.93 0 M196.93 0 C217.05 1.29, 229.44 9.34, 228.93 32 M196.93 0 C218.95 -0.25, 230.57 8.9, 228.93 32 M228.93 32 C228.64 126.72, 229.21 220.93, 228.93 284.79 M228.93 32 C230.15 100.09, 229.1 167.16, 228.93 284.79 M228.93 284.79 C227.84 306.78, 218.19 315.22, 196.93 316.79 M228.93 284.79 C230.75 305.51, 218.41 318.19, 196.93 316.79 M196.93 316.79 C147.5 316.97, 98.84 315.97, 32 316.79 M196.93 316.79 C160.9 315.82, 123.69 316.62, 32 316.79 M32 316.79 C9.16 315.67, -0.61 307.77, 0 284.79 M32 316.79 C9.13 318.62, -0.22 306.51, 0 284.79 M0 284.79 C-1 226.52, -0.62 167.73, 0 32 M0 284.79 C1.15 208.81, 1.93 132.65, 0 32 M0 32 C1.03 9.97, 10.71 -0.04, 32 0 M0 32 C2.01 11.74, 8.67 0.75, 32 0" stroke="#1e1e1e" stroke-width="2" fill="none"></path></g><g transform="translate(1258.2887472833322 817.051493392561) rotate(0 76.171875 12)"><text x="76.171875" y="0" font-family="Cascadia, Segoe UI Emoji" font-size="20px" fill="#1e1e1e" text-anchor="middle" style="white-space: pre;" direction="ltr" dominant-baseline="text-before-edge">hermes engine</text></g><g transform="translate(347.7763498359575 502.5600304039017) rotate(0 70.3125 12)"><text x="0" y="0" font-family="Cascadia, Segoe UI Emoji" font-size="20px" fill="#1e1e1e" text-anchor="start" style="white-space: pre;" direction="ltr" dominant-baseline="text-before-edge">finalcode.py</text></g><g mask="url(#mask-MtHMyirQM8CSVA7qcOzls)" stroke-linecap="round"><g transform="translate(205.481106056287 181.6677964064911) rotate(0 -64.5100475903671 294.8835239842115)"><path d="M1.1 -0.44 C-28.65 57.42, -186.1 249.58, -178.18 348.02 C-170.26 446.46, 10.91 549.75, 48.62 590.21 M0.22 -1.72 C-29.74 55.69, -187.19 247.72, -179.27 346.02 C-171.36 444.32, 9.85 547.64, 47.71 588.09" stroke="#1e1e1e" stroke-width="2" fill="none"></path></g><g transform="translate(205.481106056287 181.6677964064911) rotate(0 -64.5100475903671 294.8835239842115)"><path d="M19.3 578.45 C27.91 580.88, 38.31 584.04, 47.71 588.09 M19.3 578.45 C29.24 581.31, 39.29 584.69, 47.71 588.09" stroke="#1e1e1e" stroke-width="2" fill="none"></path></g><g transform="translate(205.481106056287 181.6677964064911) rotate(0 -64.5100475903671 294.8835239842115)"><path d="M32.15 562.45 C36.67 570.22, 42.88 578.6, 47.71 588.09 M32.15 562.45 C37.66 570.8, 43.38 579.57, 47.71 588.09" stroke="#1e1e1e" stroke-width="2" fill="none"></path></g></g><mask id="mask-MtHMyirQM8CSVA7qcOzls"><rect x="0" y="0" fill="#fff" width="532.2669729881268" height="871.4348443749141"></rect><rect x="10" y="517.4495722027709" fill="#000" width="35.15625" height="24" opacity="1"></rect></mask><g transform="translate(10 517.4495722027709) rotate(0 130.01033575002543 -41.53818021980737)"><text x="17.578125" y="0" font-family="Cascadia, Segoe UI Emoji" font-size="20px" fill="#1e1e1e" text-anchor="middle" style="white-space: pre;" direction="ltr" dominant-baseline="text-before-edge">(2)</text></g><g mask="url(#mask-rnUgSBRCamk4hMTQ7u7mZ)" stroke-linecap="round"><g transform="translate(1460.5091816380607 744.5323362283443) rotate(0 83.32557552648291 -0.6686074342228494)"><path d="M0.95 -1.13 C28.7 -1.29, 139.87 -1.6, 167.56 -1.83 M0 0.9 C27.58 0.97, 139.33 -0.1, 167.09 -0.55" stroke="#1e1e1e" stroke-width="2" fill="none"></path></g><g transform="translate(1460.5091816380607 744.5323362283443) rotate(0 83.32557552648291 -0.6686074342228494)"><path d="M139.03 10.06 C148.13 7.23, 160.09 2.36, 167.09 -0.55 M139.03 10.06 C144.71 7.93, 150.87 5.18, 167.09 -0.55" stroke="#1e1e1e" stroke-width="2" fill="none"></path></g><g transform="translate(1460.5091816380607 744.5323362283443) rotate(0 83.32557552648291 -0.6686074342228494)"><path d="M138.78 -10.46 C147.83 -5.32, 159.89 -2.21, 167.09 -0.55 M138.78 -10.46 C144.44 -8.41, 150.66 -6.97, 167.09 -0.55" stroke="#1e1e1e" stroke-width="2" fill="none"></path></g></g><mask id="mask-rnUgSBRCamk4hMTQ7u7mZ"><rect x="0" y="0" fill="#fff" width="1727.1603326910265" height="845.86955109679"></rect><rect x="1526.2566321645436" y="731.8637287941215" fill="#000" width="35.15625" height="24" opacity="1"></rect></mask><g transform="translate(1526.2566321645436 731.8637287941215) rotate(0 18.0316624204209 12.206714621847595)"><text x="17.578125" y="0" font-family="Cascadia, Segoe UI Emoji" font-size="20px" fill="#1e1e1e" text-anchor="middle" style="white-space: pre;" direction="ltr" dominant-baseline="text-before-edge">(4)</text></g><g transform="translate(1362.6097153460214 571.1104465906396) rotate(0 246.09375 12)"><text x="0" y="0" font-family="Cascadia, Segoe UI Emoji" font-size="20px" fill="#1e1e1e" text-anchor="start" style="white-space: pre;" direction="ltr" dominant-baseline="text-before-edge">returns verdict and logs into channel-logs</text></g><g stroke-linecap="round" transform="translate(1641.7615599013966 608.5950035465676) rotate(0 96.00703663297273 136.10486331449624)"><path d="M32 0 C75.71 1.88, 112.86 -1.37, 160.01 0 C184.4 3.13, 192.62 13.89, 192.01 32 C196.92 73.97, 194.01 115.65, 192.01 240.21 C193.3 261.46, 179.14 274.71, 160.01 272.21 C121.19 270.89, 76.93 268.66, 32 272.21 C13.1 271.3, 1.97 264.92, 0 240.21 C-4.27 187.35, -5.56 138.44, 0 32 C1.13 13.15, 11.23 -1.4, 32 0" stroke="none" stroke-width="0" fill="#a5d8ff"></path><path d="M32 0 C69.1 -0.35, 107.52 -1.05, 160.01 0 M32 0 C75.87 0.05, 121.6 -0.49, 160.01 0 M160.01 0 C183.31 -1.78, 192.29 12.17, 192.01 32 M160.01 0 C179.5 1.14, 191.5 10.39, 192.01 32 M192.01 32 C190.09 92.89, 190.47 157.65, 192.01 240.21 M192.01 32 C189.72 111.96, 191.07 191.35, 192.01 240.21 M192.01 240.21 C192.9 262.4, 182.78 270.52, 160.01 272.21 M192.01 240.21 C193.76 260.12, 181.19 273.61, 160.01 272.21 M160.01 272.21 C121.48 271, 79.79 273.52, 32 272.21 M160.01 272.21 C111.86 271.92, 62.56 273.18, 32 272.21 M32 272.21 C10.18 274.15, 0.2 259.96, 0 240.21 M32 272.21 C12.38 271.24, -1.18 261.25, 0 240.21 M0 240.21 C0.83 163.51, -2.26 86.15, 0 32 M0 240.21 C1.36 177.95, 0.8 114.76, 0 32 M0 32 C-1.06 9.06, 10.62 0.4, 32 0 M0 32 C-1.06 12.17, 8.56 2.16, 32 0" stroke="#1e1e1e" stroke-width="2" fill="none"></path></g><g transform="translate(1696.7529715343694 732.699866861064) rotate(0 41.015625 12)"><text x="41.015625" y="0" font-family="Cascadia, Segoe UI Emoji" font-size="20px" fill="#1e1e1e" text-anchor="middle" style="white-space: pre;" direction="ltr" dominant-baseline="text-before-edge">discord</text></g><g stroke-linecap="round" transform="translate(1508.1627253618572 90.66107485110479) rotate(0 96.00703663297273 136.10486331449624)"><path d="M32 0 C69.81 -3.45, 109.01 -2.75, 160.01 0 C180.7 0.64, 192.19 12.55, 192.01 32 C197.64 90.4, 192.23 147.99, 192.01 240.21 C191.47 258.28, 178.3 268.84, 160.01 272.21 C116.48 276.98, 76.01 276.45, 32 272.21 C7.96 275.79, -2.97 260.86, 0 240.21 C4.9 178.33, 2.91 116.29, 0 32 C-3.18 11.12, 11.44 -2.04, 32 0" stroke="none" stroke-width="0" fill="#a5d8ff"></path><path d="M32 0 C74.78 -2.33, 117.12 -0.97, 160.01 0 M32 0 C69.93 -0.04, 108.43 0.04, 160.01 0 M160.01 0 C182.54 1.33, 191.38 9.46, 192.01 32 M160.01 0 C182.46 1.18, 190.55 10.49, 192.01 32 M192.01 32 C193.91 115.79, 191.97 195.36, 192.01 240.21 M192.01 32 C190.84 86.14, 190.82 139.63, 192.01 240.21 M192.01 240.21 C190.23 263, 180.53 270.46, 160.01 272.21 M192.01 240.21 C192.56 259.47, 182.3 270.52, 160.01 272.21 M160.01 272.21 C125.79 271.98, 88.19 273.84, 32 272.21 M160.01 272.21 C119.09 273.07, 76.25 271.89, 32 272.21 M32 272.21 C8.69 273.39, -1.91 261.58, 0 240.21 M32 272.21 C10.9 271.49, -1.75 259.85, 0 240.21 M0 240.21 C0.64 180.87, 2.73 121.28, 0 32 M0 240.21 C1.98 168.23, 1.86 96.84, 0 32 M0 32 C0.51 12.06, 11.4 0.17, 32 0 M0 32 C0.8 9.1, 9.81 -1.37, 32 0" stroke="#1e1e1e" stroke-width="2" fill="none"></path></g><g transform="translate(1539.71663699483 190.76593816560126) rotate(0 64.453125 36)"><text x="64.453125" y="0" font-family="Cascadia, Segoe UI Emoji" font-size="20px" fill="#1e1e1e" text-anchor="middle" style="white-space: pre;" direction="ltr" dominant-baseline="text-before-edge">discord</text><text x="64.453125" y="24" font-family="Cascadia, Segoe UI Emoji" font-size="20px" fill="#1e1e1e" text-anchor="middle" style="white-space: pre;" direction="ltr" dominant-baseline="text-before-edge">/challenge </text><text x="64.453125" y="48" font-family="Cascadia, Segoe UI Emoji" font-size="20px" fill="#1e1e1e" text-anchor="middle" style="white-space: pre;" direction="ltr" dominant-baseline="text-before-edge">submit</text></g><g mask="url(#mask-VeAukLvloHfSk0nKzc-w7)" stroke-linecap="round"><g transform="translate(1490.5817368376302 212.97899255444236) rotate(0 -106.60703368325932 3.433162035002397)"><path d="M0.6 0.58 C-34.79 1.7, -176.57 5.57, -212.14 6.63 M-0.55 -0.16 C-36.01 1.15, -177.05 6.63, -212.53 8.04" stroke="#1e1e1e" stroke-width="2" fill="none"></path></g><g transform="translate(1490.5817368376302 212.97899255444236) rotate(0 -106.60703368325932 3.433162035002397)"><path d="M-184.76 -3.31 C-192.56 2.19, -202.68 4.65, -212.53 8.04 M-184.76 -3.31 C-192.29 0.32, -202.41 4.5, -212.53 8.04" stroke="#1e1e1e" stroke-width="2" fill="none"></path></g><g transform="translate(1490.5817368376302 212.97899255444236) rotate(0 -106.60703368325932 3.433162035002397)"><path d="M-183.96 17.19 C-192 16.24, -202.37 12.22, -212.53 8.04 M-183.96 17.19 C-191.79 14.55, -202.16 12.47, -212.53 8.04" stroke="#1e1e1e" stroke-width="2" fill="none"></path></g></g><mask id="mask-VeAukLvloHfSk0nKzc-w7"><rect x="0" y="0" fill="#fff" width="1803.7958042041487" height="319.84531662444715"></rect><rect x="1366.396578154371" y="204.41215458944498" fill="#000" width="35.15625" height="24" opacity="1"></rect></mask><g transform="translate(1366.396578154371 204.41215458944498) rotate(0 18.221156574930063 12.506078840056261)"><text x="17.578125" y="0" font-family="Cascadia, Segoe UI Emoji" font-size="20px" fill="#1e1e1e" text-anchor="middle" style="white-space: pre;" direction="ltr" dominant-baseline="text-before-edge">(0)</text></g></svg>